<svg fill="none" height="48" viewBox="0 0 192 48" width="192" xmlns="http://www.w3.org/2000/svg"><path clip-rule="evenodd" d="m35.3721 14v8.0492h-9.9698v-2.2927z" fill="#1570ef" fill-rule="evenodd"/><path clip-rule="evenodd" d="m35.3699 14.0001-9.9698 5.7565-7.3513-4.2436v-11.513z" fill="#1570ef" fill-rule="evenodd" opacity=".9"/><path clip-rule="evenodd" d="m18.0512 4v11.513l-7.349 4.2436-9.969778-5.7565z" fill="#1570ef" fill-rule="evenodd" opacity=".8"/><path clip-rule="evenodd" d="m10.7002 19.7565v8.4868l-9.969731 5.756v-19.9993z" fill="#1570ef" fill-rule="evenodd" opacity=".7"/><path clip-rule="evenodd" d="m18.0492 32.4871v11.5129l-17.318731-10.0006 9.969731-5.756z" fill="#1570ef" fill-rule="evenodd" opacity=".6"/><path clip-rule="evenodd" d="m35.3699 33.9994-17.3211 10.0006v-11.5129l7.3513-4.2437z" fill="#1570ef" fill-rule="evenodd" opacity=".5"/><path clip-rule="evenodd" d="m35.3721 25.9507v8.0487l-9.9698-5.756v-2.2927z" fill="#1570ef" fill-rule="evenodd" opacity=".4"/><g fill="#0c111d"><path d="m62.577 26.1149c-.783 4.617-3.753 7.317-8.343 7.317-5.67 0-9.234-4.32-9.234-9.99 0-5.697 3.564-10.044 9.234-10.044 4.428 0 7.425 2.592 8.262 7.02l-4.293.189c-.459-2.376-1.917-3.726-4.05-3.726-3.375 0-4.914 2.835-4.914 6.561 0 3.699 1.566 6.507 4.914 6.507 2.214 0 3.699-1.458 4.104-4.023z"/><path d="m63.7519 23.1179c.567-3.051 2.916-4.752 6.669-4.752 4.347 0 6.588 2.133 6.588 6.237v4.482c0 .945.378 1.134.891 1.134h.54v2.7811l-.729.0269c-.945.027-3.726.297-4.131-2.187-.675 1.458-2.322 2.484-4.914 2.484-2.889 0-5.13-1.566-5.13-4.077 0-2.673 1.971-3.672 5.427-4.374l3.942-.783c-.027-2.079-.837-3.051-2.484-3.051-1.377 0-2.241.756-2.565 2.295zm3.969 5.967c0 .891.756 1.593 2.214 1.593 1.755 0 3.024-1.323 3.024-3.888v-.162l-2.376.432c-1.647.324-2.862.567-2.862 2.025z"/><path d="m79.8747 13.8299h4.104v15.012c0 .702.378 1.107 1.08 1.107h1.026v3.0511h-2.214c-2.376 0-3.996-1.4311-3.996-3.9961z"/><path d="m86.7412 25.8449c0-4.536 2.916-7.479 7.344-7.479 3.942 0 7.0198 2.727 6.9928 7.776v.756h-10.0708c.108 2.133 1.242 3.402 3.078 3.402 1.188 0 2.241-.675 2.7-1.782l4.1038.297c-.864 2.781-3.5368 4.509-6.8038 4.509-4.428 0-7.344-2.943-7.344-7.479zm4.293-1.404h5.913c-.216-2.16-1.458-3.051-2.862-3.051-1.728 0-2.835 1.161-3.051 3.051z"/><path d="m111.375 23.3339c-.216-1.323-1.35-2.133-2.592-2.133-1.215 0-2.16.648-2.106 1.674.054 1.053 1.269 1.512 2.619 1.728 4.212.675 6.291 1.782 6.291 4.482 0 2.862-2.7 4.239-6.372 4.239-4.185 0-6.858-1.809-7.074-4.86l4.104-.216c.243 1.377 1.242 2.2141 2.889 2.2141 1.026 0 2.268-.4321 2.268-1.4581-.027-1.215-1.404-1.431-2.781-1.728-3.942-.756-6.156-1.728-6.156-4.374 0-2.862 2.403-4.563 6.48-4.563 3.618 0 6.048 1.836 6.534 4.833z"/><path d="m126.796 24.1709c-.243-1.728-1.377-2.673-2.808-2.673-2.025 0-3.159 1.593-3.159 4.347s1.134 4.347 3.159 4.347c1.512 0 2.619-.945 2.862-2.808l4.212.162c-.378 3.564-3.267 5.778-7.074 5.778-4.428 0-7.344-2.943-7.344-7.479s2.916-7.479 7.344-7.479c3.699 0 6.615 2.133 6.993 5.616z"/><path d="m131.806 25.8449c0-4.536 2.916-7.479 7.344-7.479 3.942 0 7.02 2.727 6.993 7.776v.756h-10.071c.108 2.133 1.242 3.402 3.078 3.402 1.188 0 2.241-.675 2.7-1.782l4.104.297c-.864 2.781-3.537 4.509-6.804 4.509-4.428 0-7.344-2.943-7.344-7.479zm4.293-1.404h5.913c-.216-2.16-1.458-3.051-2.862-3.051-1.728 0-2.835 1.161-3.051 3.051z"/><path d="m147.67 18.6899h3.672l.108 2.295c.783-1.89 2.376-2.619 4.266-2.619 3.132 0 4.941 2.106 4.941 5.427v9.2071h-4.077v-7.8571c0-2.268-.513-3.537-2.187-3.537-1.728 0-2.619 1.269-2.619 3.537v7.8571h-4.104z"/><path d="m172.203 24.1709c-.243-1.728-1.377-2.673-2.808-2.673-2.025 0-3.159 1.593-3.159 4.347s1.134 4.347 3.159 4.347c1.512 0 2.619-.945 2.862-2.808l4.212.162c-.378 3.564-3.267 5.778-7.074 5.778-4.428 0-7.344-2.943-7.344-7.479s2.916-7.479 7.344-7.479c3.699 0 6.615 2.133 6.993 5.616z"/><path d="m177.213 25.8449c0-4.536 2.916-7.479 7.344-7.479 3.942 0 7.02 2.727 6.993 7.776v.756h-10.071c.108 2.133 1.242 3.402 3.078 3.402 1.188 0 2.241-.675 2.7-1.782l4.104.297c-.864 2.781-3.537 4.509-6.804 4.509-4.428 0-7.344-2.943-7.344-7.479zm4.293-1.404h5.913c-.216-2.16-1.458-3.051-2.862-3.051-1.728 0-2.835 1.161-3.051 3.051z"/></g></svg>